<svg xmlns="http://www.w3.org/2000/svg" xmlns:xlink="http://www.w3.org/1999/xlink" preserveAspectRatio="xMidYMid" width="1325" height="407" viewBox="0 0 1325 407">
    <defs>
        <style>
        .cls-1 {
            fill: #e8e8e8;
        }
        
        .cls-2 {
            fill: #efefef;
        }
        </style>
    </defs>
    <path d="M-8.133,67.698 C-8.133,67.698 107.738,72.228 173.347,104.203 C380.996,205.401 515.192,1.274 600.448,6.533 C777.968,17.486 906.403,263.832 958.737,213.536 C1025.858,149.029 1068.446,5.401 1205.359,51.273 C1249.146,65.943 1325.239,147.147 1325.239,147.147 L1323.983,398.244 L-5.942,388.888 L-8.133,67.698 Z" class="cls-1" />
    <path d="M-8.000,406.996 L1327.048,406.996 L1324.782,95.857 C1324.782,95.857 1205.064,129.038 1138.365,209.382 C1118.228,243.202 1061.727,289.135 987.788,230.947 C941.466,194.493 840.939,106.395 736.017,167.105 C631.095,227.816 578.801,262.784 536.537,256.097 C508.365,264.348 321.204,187.430 263.463,180.648 C179.751,170.814 -8.608,253.309 -8.608,253.309 L-8.000,406.996 Z" class="cls-2" />
</svg>
